# xmcd
#
# Track frame offsets:
#	150
#	19551
#	35180
#	52386
#	64063
#	79845
#	95942
#	113295
#	125904
#	140591
#
# Disc length: 2129 seconds
#
# Revision: 2
# Processed by: cddbd v1.4b41PL2 Copyright (c) Steve Scherf et al.
# Submitted via: EZCDDA 4.3.2
#
DISCID=94084f0a
DTITLE=Emrah Dinçer - Ýsyanýn Sesi
DYEAR=1900
DGENRE=
TTITLE0=Beni Günahsýz Yere Astýlar
TTITLE1=Beni Böyle Yýkamazsýn
TTITLE2=Helal Sana
TTITLE3=Sevda
TTITLE4=Yanýldýn
TTITLE5=Demedim mi
TTITLE6=Zalim
TTITLE7=Sen
TTITLE8=Ey Dost
TTITLE9=Kan Yaðýyor
EXTD=
EXTT0=
EXTT1=
EXTT2=
EXTT3=
EXTT4=
EXTT5=
EXTT6=
EXTT7=
EXTT8=
EXTT9=
PLAYORDER=
